<svg width="92" height="63" viewBox="0 0 92 63" fill="none" xmlns="http://www.w3.org/2000/svg">
<g filter="url(#filter0_d_417_2)">
<path d="M35.3212 44.0904H25.4662V30.0119H35.3212C37.2717 30.0119 38.9288 30.7012 40.2927 32.0797C41.6712 33.4435 42.3605 35.1007 42.3605 37.0512C42.3605 39.0016 41.6712 40.6661 40.2927 42.0446C38.9288 43.4085 37.2717 44.0904 35.3212 44.0904ZM28.282 41.2747H35.3212C36.4944 41.2747 37.4917 40.8641 38.3129 40.0429C39.1342 39.2216 39.5448 38.2244 39.5448 37.0512C39.5448 35.878 39.1342 34.8807 38.3129 34.0595C37.4917 33.2382 36.4944 32.8276 35.3212 32.8276H28.282V41.2747Z" fill="url(#paint0_linear_417_2)"/>
<path d="M58.0668 38.459H50.3237V35.6433H58.0668V38.459ZM58.0668 30.0119V32.8276H46.804V41.2747H58.0668V44.0904H43.9883V30.0119H58.0668Z" fill="url(#paint1_linear_417_2)"/>
<path d="M58.7488 30.0119H61.9164L65.788 38.1071L69.6596 30.0119H72.8273L65.788 44.7944L58.7488 30.0119Z" fill="url(#paint2_linear_417_2)"/>
</g>
<g filter="url(#filter1_d_417_2)">
<path d="M28.2256 22.5784H36.9543V26.0699H28.2256C25.8071 26.0699 23.7431 25.2243 22.0337 23.5331C20.3425 21.8238 19.4969 19.7598 19.4969 17.3412C19.4969 14.9227 20.3425 12.8678 22.0337 11.1766C23.7431 9.46723 25.8071 8.61255 28.2256 8.61255H36.9543V12.104H28.2256C26.7709 12.104 25.5343 12.6132 24.5159 13.6315C23.4976 14.6499 22.9884 15.8865 22.9884 17.3412C22.9884 18.796 23.4976 20.0326 24.5159 21.0509C25.5343 22.0693 26.7709 22.5784 28.2256 22.5784Z" fill="url(#paint3_linear_417_2)"/>
<path d="M58.2305 29.5614L56.2938 26.0699H45.4375C43.0189 26.0699 40.955 25.2243 39.2456 23.5331C37.5544 21.8238 36.7088 19.7598 36.7088 17.3412C36.7088 14.9227 37.5544 12.8678 39.2456 11.1766C40.955 9.46723 43.0189 8.61255 45.4375 8.61255H59.4034L57.6577 12.104H45.4375C43.9827 12.104 42.7462 12.6132 41.7278 13.6315C40.7095 14.6499 40.2003 15.8865 40.2003 17.3412C40.2003 18.796 40.7095 20.0326 41.7278 21.0509C42.7462 22.0693 43.9827 22.5784 45.4375 22.5784H54.3571L52.4205 19.087H45.4375V15.5955H54.1662L61.7765 29.5614H58.2305Z" fill="url(#paint4_linear_417_2)"/>
</g>
<path d="M68.0091 2.64325H58.2974L78.273 41.6968L68.2852 62.0968H80.045C81.8032 62.0968 83.4081 61.0957 84.1812 59.5166L91.2195 45.1409C92.2809 42.973 92.2587 40.4317 91.1595 38.2828L75.1711 7.0244C73.7956 4.33529 71.0296 2.64325 68.0091 2.64325Z" fill="url(#paint5_linear_417_2)"/>
<path d="M75.1711 7.02441C83.134 22.5924 83.7555 30.4988 78.2731 41.6968L68.2853 62.0968H80.045C81.8033 62.0968 83.4081 61.0957 84.1813 59.5166L91.2195 45.1409C92.281 42.973 92.2587 40.4318 91.1595 38.2828L75.1711 7.02441Z" fill="url(#paint6_linear_417_2)"/>
<path d="M75.1711 7.02441C83.134 22.5924 83.7555 30.4988 78.2731 41.6968L68.2853 62.0968H80.045C81.8033 62.0968 83.4081 61.0957 84.1813 59.5166L91.2195 45.1409C92.281 42.973 92.2587 40.4318 91.1595 38.2828L75.1711 7.02441Z" fill="url(#paint7_linear_417_2)"/>
<path d="M23.958 60.6277L33.6564 61.1359L15.7521 21.0905L26.7939 1.24114L15.0502 0.625678C13.2943 0.533653 11.6393 1.44942 10.7846 2.98594L3.00352 16.9736C1.8302 19.0829 1.71942 21.6219 2.70461 23.8255L17.0351 55.8776C18.268 58.6351 20.9416 60.4696 23.958 60.6277Z" fill="url(#paint8_linear_417_2)"/>
<path d="M23.958 60.6277L33.6564 61.1359L15.7521 21.0905L26.7939 1.24114L15.0502 0.625678C13.2943 0.533653 11.6393 1.44942 10.7846 2.98594L3.00352 16.9736C1.8302 19.0829 1.71942 21.6219 2.70461 23.8255L17.0351 55.8776C18.268 58.6351 20.9416 60.4696 23.958 60.6277Z" fill="url(#paint9_linear_417_2)"/>
<path d="M17.0351 55.8776C9.89789 39.9142 9.69099 31.9863 15.7521 21.0905L26.7939 1.24114L15.0502 0.625678C13.2943 0.533653 11.6393 1.44942 10.7846 2.98594L3.00352 16.9736C1.8302 19.0829 1.71942 21.6219 2.70461 23.8255L17.0351 55.8776Z" fill="url(#paint10_linear_417_2)"/>
<path d="M17.0351 55.8776C9.89789 39.9142 9.69099 31.9863 15.7521 21.0905L26.7939 1.24114L15.0502 0.625678C13.2943 0.533653 11.6393 1.44942 10.7846 2.98594L3.00352 16.9736C1.8302 19.0829 1.71942 21.6219 2.70461 23.8255L17.0351 55.8776Z" fill="url(#paint11_linear_417_2)"/>
<defs>
<filter id="filter0_d_417_2" x="23.4662" y="30.0119" width="51.361" height="19.2825" filterUnits="userSpaceOnUse" color-interpolation-filters="sRGB">
<feFlood flood-opacity="0" result="BackgroundImageFix"/>
<feColorMatrix in="SourceAlpha" type="matrix" values="0 0 0 0 0 0 0 0 0 0 0 0 0 0 0 0 0 0 127 0" result="hardAlpha"/>
<feOffset dy="2.5"/>
<feGaussianBlur stdDeviation="1"/>
<feComposite in2="hardAlpha" operator="out"/>
<feColorMatrix type="matrix" values="0 0 0 0 0 0 0 0 0 0 0 0 0 0 0 0 0 0 0.63 0"/>
<feBlend mode="normal" in2="BackgroundImageFix" result="effect1_dropShadow_417_2"/>
<feBlend mode="normal" in="SourceGraphic" in2="effect1_dropShadow_417_2" result="shape"/>
</filter>
<filter id="filter1_d_417_2" x="17.4969" y="8.61255" width="46.2796" height="25.4489" filterUnits="userSpaceOnUse" color-interpolation-filters="sRGB">
<feFlood flood-opacity="0" result="BackgroundImageFix"/>
<feColorMatrix in="SourceAlpha" type="matrix" values="0 0 0 0 0 0 0 0 0 0 0 0 0 0 0 0 0 0 127 0" result="hardAlpha"/>
<feOffset dy="2.5"/>
<feGaussianBlur stdDeviation="1"/>
<feComposite in2="hardAlpha" operator="out"/>
<feColorMatrix type="matrix" values="0 0 0 0 0 0 0 0 0 0 0 0 0 0 0 0 0 0 0.63 0"/>
<feBlend mode="normal" in2="BackgroundImageFix" result="effect1_dropShadow_417_2"/>
<feBlend mode="normal" in="SourceGraphic" in2="effect1_dropShadow_417_2" result="shape"/>
</filter>
<linearGradient id="paint0_linear_417_2" x1="54.2428" y1="-8.16907" x2="49.2871" y2="56.7048" gradientUnits="userSpaceOnUse">
<stop offset="0.406273" stop-color="#0A38DD"/>
<stop offset="1" stop-color="#69E23F"/>
</linearGradient>
<linearGradient id="paint1_linear_417_2" x1="54.2428" y1="-8.16907" x2="49.2871" y2="56.7048" gradientUnits="userSpaceOnUse">
<stop offset="0.406273" stop-color="#0A38DD"/>
<stop offset="1" stop-color="#69E23F"/>
</linearGradient>
<linearGradient id="paint2_linear_417_2" x1="54.2428" y1="-8.16907" x2="49.2871" y2="56.7048" gradientUnits="userSpaceOnUse">
<stop offset="0.406273" stop-color="#0A38DD"/>
<stop offset="1" stop-color="#69E23F"/>
</linearGradient>
<linearGradient id="paint3_linear_417_2" x1="17.7512" y1="17.5102" x2="63.7036" y2="17.5102" gradientUnits="userSpaceOnUse">
<stop stop-color="#0A89FF"/>
<stop offset="1" stop-color="#370072"/>
</linearGradient>
<linearGradient id="paint4_linear_417_2" x1="17.7512" y1="17.5102" x2="63.7036" y2="17.5102" gradientUnits="userSpaceOnUse">
<stop stop-color="#0A89FF"/>
<stop offset="1" stop-color="#370072"/>
</linearGradient>
<linearGradient id="paint5_linear_417_2" x1="58.2974" y1="32.3701" x2="92.0001" y2="32.3701" gradientUnits="userSpaceOnUse">
<stop stop-color="#0A89FF"/>
<stop offset="1" stop-color="#370072"/>
</linearGradient>
<linearGradient id="paint6_linear_417_2" x1="80.1427" y1="62.0968" x2="80.1427" y2="7.02441" gradientUnits="userSpaceOnUse">
<stop stop-color="#5278FF"/>
<stop offset="1" stop-color="#AE38FF"/>
</linearGradient>
<linearGradient id="paint7_linear_417_2" x1="77.1769" y1="33.6004" x2="110.1" y2="44.2607" gradientUnits="userSpaceOnUse">
<stop stop-color="#52D5FF"/>
<stop offset="0.4" stop-color="#69AC34"/>
<stop offset="1" stop-color="#38FF4C"/>
</linearGradient>
<linearGradient id="paint8_linear_417_2" x1="1.55579" y1="29.6861" x2="35.2122" y2="31.4499" gradientUnits="userSpaceOnUse">
<stop stop-color="#0A89FF"/>
<stop offset="1" stop-color="#370072"/>
</linearGradient>
<linearGradient id="paint9_linear_417_2" x1="-23.1567" y1="13.6319" x2="49.2548" y2="62.6272" gradientUnits="userSpaceOnUse">
<stop stop-color="#00069E"/>
<stop offset="1" stop-color="#38FF58"/>
</linearGradient>
<linearGradient id="paint10_linear_417_2" x1="12.0704" y1="55.6174" x2="14.9527" y2="0.620567" gradientUnits="userSpaceOnUse">
<stop stop-color="#3888FF"/>
<stop offset="1" stop-color="#A7FF38"/>
</linearGradient>
<linearGradient id="paint11_linear_417_2" x1="-15.5467" y1="12.9247" x2="42.3302" y2="43.188" gradientUnits="userSpaceOnUse">
<stop stop-color="#00069E"/>
<stop offset="1" stop-color="#38FF58"/>
</linearGradient>
</defs>
</svg>
